# xmcd CD database file generated by Grip 2.7
# 
# Track frame offsets:
#       150
#       26766
#       48757
#       69183
#       91642
#       112260
#       135787
#       160245
#       180099
#       203285
#       224100
#       243267
#       262476
#       285229
# 
# Disc length: 4124 seconds
# 
# Revision: 3
# Processed by: cddbd v1.4b41PL1 Copyright (c) Steve Scherf et al.
# Submitted via: Grip 2.7
# 
DISCID=b7101a0e
DTITLE=MANÁ - Grandes Éxitos
DYEAR=1900
DGENRE=
TTITLE0=En El Muelle de san blas
TTITLE1=Vivir sin aire
TTITLE2=Oye mi amor
TTITLE3=Te lloré un rio
TTITLE4=Como te deseo
TTITLE5=Clavado en un bar
TTITLE6=No ha parado de llover
TTITLE7=Déjame entrar
TTITLE8=Cuando los angeles lloran
TTITLE9=De pies a cabeza
TTITLE10=Perdido en un barco
TTITLE11=Rayando el sol
TTITLE12=Hechicera
TTITLE13=Un lobo por tu amor
EXTD=http://www.mana.com.mx/
EXTT0=
EXTT1=
EXTT2=
EXTT3=
EXTT4=
EXTT5=
EXTT6=
EXTT7=
EXTT8=
EXTT9=
EXTT10=
EXTT11=
EXTT12=
EXTT13=
PLAYORDER=
